<svg xmlns="http://www.w3.org/2000/svg" width="176.208" height="51.843" viewBox="0 0 176.208 51.843"><defs><style>.a{fill:#d1545b;}.b{fill:#e5e7e8;}.c{fill:#fff;}.d{fill:#0e2b3d;}</style></defs><g transform="translate(0 -0.026)"><path class="a" d="M57.941,141.481a4.269,4.269,0,0,0-.672-.046H3.441A2.711,2.711,0,0,0,3,141.4a3,3,0,0,0,0,6H23.716a5.732,5.732,0,0,0,.29,1.1l.348.915H15.258a2.722,2.722,0,0,0-.3-.012,3,3,0,1,0,0,6,2.521,2.521,0,0,0,.3-.012h11.4l1.912,4.97H19.163a2.091,2.091,0,0,0-.718.151c-.023.012-.046.012-.058.023a2.406,2.406,0,0,0,0,4.472.2.2,0,0,0,.058.023,2.824,2.824,0,0,0,.718.151H29.706a1.927,1.927,0,0,0,.684-.116l.892,2.306a5.2,5.2,0,0,0,4.843,3.325H50.989a5.184,5.184,0,0,0,4.924-3.545L62.2,148.294A5.2,5.2,0,0,0,57.941,141.481Z" transform="translate(0 -124.995)"/><path class="b" d="M321.244,206.98q-.539,3.91-2.572,5.492a9.073,9.073,0,0,1-4.379,1.888c-.324.035-.637.07-.962.081s-.626.023-.927.023q-4.414,0-6.465-1.958a6.636,6.636,0,0,1-2.039-5.028c0-.266.012-.521.023-.776s.046-.5.081-.741L305.58,195h4.078l-1.553,10.867c-.023.209-.035.394-.058.579a3.922,3.922,0,0,0-.023.521,3.672,3.672,0,0,0,.857,2.6,4.381,4.381,0,0,0,1.819,1.159,8.076,8.076,0,0,0,.892.174,6.828,6.828,0,0,0,.8.058h.116a5.463,5.463,0,0,0,2.989-.973,4.555,4.555,0,0,0,1.715-3.314l1.634-11.655h4.09Z" transform="translate(-268.691 -172.385)"/><g transform="translate(55.508 47.884)"><path class="c" d="M479.1,413.7h.51c.1,0,.185.012.266.012a1.039,1.039,0,0,1,.209.023c.058.012.116.023.162.035a.429.429,0,0,1,.127.058.675.675,0,0,1,.174.127.874.874,0,0,1,.127.162.511.511,0,0,1,.07.185,1.275,1.275,0,0,1,.023.209.893.893,0,0,1-.023.174.49.49,0,0,1-.07.162,1.229,1.229,0,0,1-.116.139.746.746,0,0,1-.151.116,1.187,1.187,0,0,1,.243.116.87.87,0,0,1,.185.174.769.769,0,0,1,.1.22.988.988,0,0,1,.035.266.74.74,0,0,1-.07.324.761.761,0,0,1-.209.266.835.835,0,0,1-.313.174,1.323,1.323,0,0,1-.382.058h-.892v-3Zm.718,1.3a1.305,1.305,0,0,0,.232-.023.418.418,0,0,0,.174-.093.478.478,0,0,0,.116-.151.642.642,0,0,0,0-.417.353.353,0,0,0-.116-.151.692.692,0,0,0-.185-.093.847.847,0,0,0-.255-.035h-.29V415Zm.07,1.367a1.042,1.042,0,0,0,.29-.035.867.867,0,0,0,.209-.093.348.348,0,0,0,.127-.162.617.617,0,0,0,.046-.22.441.441,0,0,0-.046-.22.32.32,0,0,0-.127-.151.429.429,0,0,0-.209-.093,1.1,1.1,0,0,0-.29-.035h-.406v1.02h.406Z" transform="translate(-479.1 -413.63)"/><path class="c" d="M528.894,415.565a1.125,1.125,0,0,0,.046.359.667.667,0,0,0,.151.266.692.692,0,0,0,.243.162.9.9,0,0,0,.324.058.952.952,0,0,0,.324-.058.691.691,0,0,0,.243-.162.669.669,0,0,0,.151-.266,1.127,1.127,0,0,0,.046-.359V413.7h.394v1.877a1.26,1.26,0,0,1-.081.487,1.128,1.128,0,0,1-.243.382,1.147,1.147,0,0,1-.371.243,1.181,1.181,0,0,1-.463.081,1.24,1.24,0,0,1-.475-.081.984.984,0,0,1-.371-.243.919.919,0,0,1-.232-.382,1.3,1.3,0,0,1-.081-.487V413.7h.394Z" transform="translate(-522.777 -413.63)"/><path class="c" d="M580.72,415.5l-1.02-1.8h.452l.7,1.3c.012.023.023.035.023.058a.043.043,0,0,1,.012.035c0,.012.012.023.012.035s.012.023.012.035c0-.012.012-.023.012-.035s.012-.023.012-.035.012-.023.012-.035.012-.023.023-.046l.7-1.309h.44l-1.008,1.8v1.217H580.7V415.5Z" transform="translate(-568.045 -413.63)"/><path class="c" d="M668.428,413.7h.324l1.274,3.012h-.463l-.266-.7h-1.413l-.266.7H667.2Zm.73,1.958-.475-1.2a.051.051,0,0,1-.012-.035c-.012-.012-.012-.035-.023-.07s-.011-.058-.023-.081a.8.8,0,0,1-.035-.093.358.358,0,0,0-.023.093.215.215,0,0,1-.023.081.2.2,0,0,0-.023.058c0,.012-.012.023-.012.035l-.475,1.2h1.124Z" transform="translate(-645.407 -413.63)"/><path class="c" d="M723.3,413.7h.371l1.46,2.085a.252.252,0,0,0,.046.058c.012.023.023.035.035.058s.012.023.023.035.012.023.023.035a.413.413,0,0,1,.046.1,1.182,1.182,0,0,1,.046.116c-.012-.046-.023-.093-.035-.127a.492.492,0,0,1-.023-.127c0-.035-.012-.081-.012-.116s-.012-.069-.012-.1V413.7h.382v3.012h-.324l-1.518-2.167-.069-.1a.665.665,0,0,1-.046-.081c-.012-.023-.023-.058-.035-.081s-.023-.058-.035-.081c.012.058.023.1.035.151s.012.093.023.139.012.081.012.127v2.109h-.382V413.7Z" transform="translate(-695.008 -413.63)"/><path class="c" d="M779.467,413.893a1.526,1.526,0,0,1,.545.29,1.268,1.268,0,0,1,.336.475,1.853,1.853,0,0,1,.116.649,1.622,1.622,0,0,1-.116.649,1.151,1.151,0,0,1-.336.475,1.434,1.434,0,0,1-.545.29,2.884,2.884,0,0,1-.742.093H778.1V413.8h.626A2.452,2.452,0,0,1,779.467,413.893Zm-.973,2.56h.29a2.028,2.028,0,0,0,.556-.07.875.875,0,0,0,.394-.22.987.987,0,0,0,.243-.359,1.323,1.323,0,0,0,.081-.5,1.284,1.284,0,0,0-.081-.5.862.862,0,0,0-.243-.359,1,1,0,0,0-.394-.22,2.029,2.029,0,0,0-.556-.07h-.29Z" transform="translate(-743.458 -413.719)"/><path class="c" d="M869.6,413.7h.51c.1,0,.185.012.266.012a1.039,1.039,0,0,1,.209.023c.058.012.116.023.162.035a.428.428,0,0,1,.127.058.676.676,0,0,1,.174.127.873.873,0,0,1,.127.162.512.512,0,0,1,.07.185,1.275,1.275,0,0,1,.023.209.893.893,0,0,1-.023.174.492.492,0,0,1-.07.162,1.232,1.232,0,0,1-.116.139.746.746,0,0,1-.151.116,1.187,1.187,0,0,1,.243.116.87.87,0,0,1,.185.174.768.768,0,0,1,.1.22.989.989,0,0,1,.035.266.74.74,0,0,1-.07.324.76.76,0,0,1-.209.266.835.835,0,0,1-.313.174,1.323,1.323,0,0,1-.382.058h-.892v-3Zm.707,1.3a1.3,1.3,0,0,0,.232-.023.318.318,0,0,0,.174-.093.48.48,0,0,0,.116-.151.643.643,0,0,0,0-.417.354.354,0,0,0-.116-.151.692.692,0,0,0-.185-.093.847.847,0,0,0-.255-.035h-.29V415Zm.081,1.367a1.042,1.042,0,0,0,.29-.035.866.866,0,0,0,.209-.093.348.348,0,0,0,.127-.162.617.617,0,0,0,.046-.22.441.441,0,0,0-.046-.22.32.32,0,0,0-.127-.151.429.429,0,0,0-.209-.093,1.1,1.1,0,0,0-.29-.035h-.406v1.02h.406Z" transform="translate(-824.357 -413.63)"/><path class="c" d="M919.2,413.7h.684a1.54,1.54,0,0,1,.487.07,1.479,1.479,0,0,1,.359.174.67.67,0,0,1,.22.29,1.021,1.021,0,0,1,.069.382,1.243,1.243,0,0,1-.058.371.83.83,0,0,1-.185.29.806.806,0,0,1-.29.2.9.9,0,0,1-.359.07H920.1l1.054,1.17h-.487l-1.066-1.228v1.228h-.394V413.7Zm.672,1.553a1.324,1.324,0,0,0,.324-.035.622.622,0,0,0,.232-.116.472.472,0,0,0,.139-.2.644.644,0,0,0,.046-.266.538.538,0,0,0-.046-.243.433.433,0,0,0-.151-.174,1.187,1.187,0,0,0-.243-.116,1.427,1.427,0,0,0-.336-.035h-.255v1.182Z" transform="translate(-868.211 -413.63)"/><path class="c" d="M968.7,413.7h.394v3.012H968.7Z" transform="translate(-911.976 -413.63)"/><path class="c" d="M1006.6,413.7h.371l1.46,2.085a.249.249,0,0,0,.046.058c.011.023.023.035.035.058s.012.023.023.035.012.023.023.035a.416.416,0,0,1,.046.1,1.231,1.231,0,0,1,.046.116c-.012-.046-.023-.093-.035-.127a.5.5,0,0,1-.023-.127c0-.035-.011-.081-.011-.116s-.012-.069-.012-.1V413.7h.382v3.012h-.324l-1.518-2.167-.07-.1a.678.678,0,0,1-.046-.081c-.012-.023-.023-.058-.035-.081s-.023-.058-.035-.081c.012.058.023.1.035.151s.012.093.023.139.012.081.012.127v2.109h-.382V413.7Z" transform="translate(-945.485 -413.63)"/><path class="c" d="M1061.913,413.668a.643.643,0,0,0-.2-.1,1.228,1.228,0,0,0-.22-.058,1.26,1.26,0,0,0-.672.058.587.587,0,0,0-.185.1l-.174.139a1.176,1.176,0,0,0-.151.185.771.771,0,0,0-.1.22c-.023.07-.046.151-.069.232a.9.9,0,0,0-.023.255,1.734,1.734,0,0,0,.023.255.768.768,0,0,0,.069.232,1.767,1.767,0,0,0,.1.209,1.176,1.176,0,0,0,.151.185c.058.046.1.093.174.139a1.5,1.5,0,0,0,.185.1,1.312,1.312,0,0,0,.44.081,1.279,1.279,0,0,0,.429-.07,1.071,1.071,0,0,0,.348-.208.957.957,0,0,0,.243-.324,2.06,2.06,0,0,0,.139-.429h-1.077v-.359h1.483v.081a1.792,1.792,0,0,1-.012.255c-.012.081-.023.162-.035.232a1.467,1.467,0,0,1-.07.209.916.916,0,0,1-.093.185,1.394,1.394,0,0,1-.243.324,1.614,1.614,0,0,1-.313.243,1.757,1.757,0,0,1-.371.139,1.677,1.677,0,0,1-.429.046,2.839,2.839,0,0,1-.313-.023,2.124,2.124,0,0,1-.29-.07,1.742,1.742,0,0,1-.255-.127,1.043,1.043,0,0,1-.22-.174c-.081-.081-.139-.162-.208-.243a1.579,1.579,0,0,1-.151-.278,2.5,2.5,0,0,1-.093-.313,1.472,1.472,0,0,1-.035-.324,1.58,1.58,0,0,1,.035-.336,1.306,1.306,0,0,1,.093-.3,1.64,1.64,0,0,1,.151-.278,1.944,1.944,0,0,1,.208-.243,1.7,1.7,0,0,1,.22-.185,1.308,1.308,0,0,1,.255-.127,2.11,2.11,0,0,1,.29-.081,2.127,2.127,0,0,1,.626,0,1.188,1.188,0,0,1,.29.081,1.736,1.736,0,0,1,.255.127,1.041,1.041,0,0,1,.22.174l-.278.266A1.069,1.069,0,0,0,1061.913,413.668Z" transform="translate(-992.433 -413.1)"/></g><path class="a" d="M522.788,250.345c.394-.278.765-.521,1.124-.73a8.061,8.061,0,0,1,1.066-.51,6.333,6.333,0,0,1,1.043-.3,5.874,5.874,0,0,1,1.124-.1,2.983,2.983,0,0,1,2.688,1.17,4.917,4.917,0,0,1,.776,2.8c0,.185,0,.371-.012.545s-.035.371-.07.579l-1.1,7.89h-3.8l1.066-7.635a2.23,2.23,0,0,0,.046-.313,3.253,3.253,0,0,0,.012-.336,3.145,3.145,0,0,0-.266-1.309.937.937,0,0,0-.915-.579,2.849,2.849,0,0,0-1.437.463,8.881,8.881,0,0,0-1.773,1.506l-1.159,8.191h-3.8l1.807-12.768h3.8Z" transform="translate(-457.455 -219.864)"/><path class="a" d="M655.2,221.206h-3.8l1.807-12.791h3.8Zm.348-18.306a2.016,2.016,0,0,1,1.39.6,1.958,1.958,0,1,1-1.39-.579Z" transform="translate(-575.93 -179.37)"/><g transform="translate(8.434 0.026)"><path class="d" d="M80.261,97.816c-.892,1.228-1.634,2.352-2.213,3.3H72.8A27.346,27.346,0,0,1,75.789,95.8C77.318,96.565,78.8,97.225,80.261,97.816Z" transform="translate(-72.8 -84.704)"/><path class="d" d="M151.569,121.779c-.012.035-.012.081-.023.116H141.2a29.057,29.057,0,0,1,1.367-2.6A53.7,53.7,0,0,0,151.569,121.779Z" transform="translate(-133.275 -105.481)"/><path class="d" d="M384.277,29.991a4.269,4.269,0,0,0-.672-.046h-6.453a30,30,0,0,0-4.043-9.674,3.622,3.622,0,0,0,.66-.452c-.266.081-.544.151-.811.209A29.823,29.823,0,0,0,369.1,15.3,26.749,26.749,0,0,1,384.277,29.991Z" transform="translate(-334.771 -13.53)"/><path class="d" d="M376.891,129.322H370.6a31.436,31.436,0,0,0,5.862-1.622C376.625,128.268,376.764,128.812,376.891,129.322Z" transform="translate(-336.098 -112.908)"/><path class="d" d="M359.417,68.9a54.254,54.254,0,0,1-7.23,1.066,72.521,72.521,0,0,0-.788-7.519,15.554,15.554,0,0,0,5.237-.95A45.253,45.253,0,0,1,359.417,68.9Z" transform="translate(-319.122 -54.378)"/><path class="d" d="M337.673,10.41a25.883,25.883,0,0,1-5.19.429A18.121,18.121,0,0,0,330.2,4.2a28.69,28.69,0,0,1,3.012.765c.394.127.776.255,1.159.394h0A24.493,24.493,0,0,1,337.673,10.41Z" transform="translate(-300.378 -3.716)"/><path class="d" d="M281.326,7.344A41.075,41.075,0,0,1,273.9,6.162C275,3.718,276.09,1.6,276.75.3a24.194,24.194,0,0,1,2.572.266A46.9,46.9,0,0,1,281.326,7.344Z" transform="translate(-250.601 -0.268)"/><path class="d" d="M234.306.046a41.387,41.387,0,0,0-3.58,5.6c-1.61-.44-3.1-.927-4.426-1.413,2.132-1.8,4.1-3.175,5.492-4.159C232.614.023,233.46.011,234.306.046Z" transform="translate(-208.516 -0.026)"/><path class="d" d="M197.714,1.5A36.8,36.8,0,0,0,192.4,5.022c-1.159-.452-2.143-.881-2.9-1.228A26.765,26.765,0,0,1,197.714,1.5Z" transform="translate(-175.979 -1.329)"/><path class="d" d="M121.227,33.563a48.46,48.46,0,0,0-6.14,6.488,42.288,42.288,0,0,1-4.287-2.178,26.927,26.927,0,0,1,6.673-5.573C118.783,32.763,120.034,33.181,121.227,33.563Z" transform="translate(-106.397 -28.561)"/><path class="d" d="M170.43,56.422a49.713,49.713,0,0,1-8.33-2.5,39.5,39.5,0,0,1,5.978-6.72c1.9.556,3.65,1.02,5.248,1.379A41.775,41.775,0,0,0,170.43,56.422Z" transform="translate(-151.754 -41.734)"/><path class="d" d="M256.844,69.885a50.77,50.77,0,0,1-11.644-.753A52.846,52.846,0,0,1,248,61.3a43.09,43.09,0,0,0,8.168.985A36.538,36.538,0,0,1,256.844,69.885Z" transform="translate(-225.226 -54.201)"/><path class="d" d="M724.5,194.418l-.568,3.383a10.684,10.684,0,0,0-2.7-1.3,9.56,9.56,0,0,0-1.066-.266,5.187,5.187,0,0,0-.985-.1,3.147,3.147,0,0,0-1.912.579,1.809,1.809,0,0,0-.788,1.529,1.612,1.612,0,0,0,.5,1.182,6.365,6.365,0,0,0,1.251.985,9.939,9.939,0,0,0,.857.545c.313.174.626.359.938.545a12.573,12.573,0,0,1,2.421,2.028,4.533,4.533,0,0,1,1.1,3.209,5.835,5.835,0,0,1-1.634,4.078,6.306,6.306,0,0,1-4.878,1.773,12.875,12.875,0,0,1-3.661-.475,11.625,11.625,0,0,1-2.873-1.321l.614-3.383a6.952,6.952,0,0,0,1.321.846,10.4,10.4,0,0,0,1.495.614,9.45,9.45,0,0,0,1.367.394,6.083,6.083,0,0,0,1.251.139,3.265,3.265,0,0,0,2-.579,1.816,1.816,0,0,0,.765-1.529,2.112,2.112,0,0,0-.66-1.552,10.066,10.066,0,0,0-1.587-1.24c-.209-.127-.417-.266-.637-.394s-.44-.266-.66-.417a13.645,13.645,0,0,1-2.422-1.97,4.154,4.154,0,0,1-1.1-3.012,5.219,5.219,0,0,1,1.935-4.159,7.165,7.165,0,0,1,4.831-1.645c.243,0,.5.012.741.023s.5.046.741.081a10.417,10.417,0,0,1,2.074.51,10.942,10.942,0,0,1,1.935.9H724.5Z" transform="translate(-636.617 -170.554)"/><path class="d" d="M846.8,203.167a7.939,7.939,0,0,1,1.564-1,7.215,7.215,0,0,1,1.7-.579c.174-.023.336-.035.51-.058a3.756,3.756,0,0,1,.51-.023,3.477,3.477,0,0,1,2.6.973,3.8,3.8,0,0,1,.962,2.769c0,.151,0,.313-.012.475a3.853,3.853,0,0,1-.07.51l-1.159,8.249H849.58l1.159-8.191v-.058a.3.3,0,0,1,.023-.081v-.139a1.882,1.882,0,0,0-.324-.985,1.025,1.025,0,0,0-.892-.417,3.288,3.288,0,0,0-1.448.394,8.564,8.564,0,0,0-1.738,1.217l-1.159,8.284h-3.8l2.7-19.209h3.8Z" transform="translate(-752.352 -172.676)"/><path class="d" d="M990.706,254.8a6.987,6.987,0,0,1-2.085,5.167,7.067,7.067,0,0,1-5.179,2.074,6.394,6.394,0,0,1-4.588-1.773A5.8,5.8,0,0,1,977,255.9a6.694,6.694,0,0,1,2.167-5.017,7.261,7.261,0,0,1,5.214-2.085,6.494,6.494,0,0,1,4.553,1.634,5.644,5.644,0,0,1,1.784,4.391V254.8Zm-3.939-.116a2.873,2.873,0,0,0-.707-2.016,2.381,2.381,0,0,0-1.854-.776,2.453,2.453,0,0,0-1.889.765,4.979,4.979,0,0,0-1.043,1.657,6.875,6.875,0,0,0-.255.985,4.652,4.652,0,0,0-.081.811,2.771,2.771,0,0,0,.6,1.9,2.545,2.545,0,0,0,1.332.857,1.941,1.941,0,0,0,.313.069,2.232,2.232,0,0,0,.278.012,2.554,2.554,0,0,0,2.074-.938,5.116,5.116,0,0,0,1.054-2.074,3.863,3.863,0,0,0,.127-.637,5.942,5.942,0,0,0,.046-.6Z" transform="translate(-872.241 -219.978)"/><path class="d" d="M1112.319,231.491l.637-.07c.22-.023.417-.046.6-.07.208-.023.406-.035.591-.046s.359-.012.51-.012a5.524,5.524,0,0,1,4.055,1.529,5.449,5.449,0,0,1,1.552,4.043,7.191,7.191,0,0,1-2.34,5.434,7.953,7.953,0,0,1-5.689,2.224c-.151,0-.29,0-.417-.012s-.266-.023-.394-.046-.278-.046-.417-.081-.313-.07-.475-.116l-1.587,9.825h-3.8l2.723-17.854a8.3,8.3,0,0,0-1.7,1.634,6.309,6.309,0,0,1-.776.962.484.484,0,0,1-.185.127.677.677,0,0,1-.209.046c-.081,0-.127-.023-.151-.07a.4.4,0,0,1-.046-.185,6.214,6.214,0,0,1,.51-1.483,8.726,8.726,0,0,1,1.854-2.572,5.05,5.05,0,0,1,.5-.5c.174-.162.371-.324.579-.5l.649-4.7h3.8Zm-.394,2.757-.962,6.928a3.23,3.23,0,0,0,.3.139,1,1,0,0,0,.243.081,2.319,2.319,0,0,0,.278.046,2.938,2.938,0,0,0,.336.012,3.635,3.635,0,0,0,2.757-.973,4.962,4.962,0,0,0,1.24-2.132,4.18,4.18,0,0,0,.151-.718c.023-.232.046-.463.046-.7a2.873,2.873,0,0,0-.742-2.1,2.955,2.955,0,0,0-2.178-.741,5.045,5.045,0,0,0-.707.046,6.574,6.574,0,0,0-.765.127Z" transform="translate(-985.235 -202.471)"/><path class="d" d="M1257.741,250.827l.058.058a8.416,8.416,0,0,1,1.645-1.576,2.618,2.618,0,0,1,1.448-.51c.127,0,.255.012.382.023a1.117,1.117,0,0,1,.348.116,2.554,2.554,0,0,1,.742.452,5.443,5.443,0,0,1,.8.823l-1.773,3.487a7.577,7.577,0,0,0-.533-.672,2.021,2.021,0,0,0-.51-.417.958.958,0,0,0-.371-.2,1.543,1.543,0,0,0-.394-.058.878.878,0,0,0-.174.012,1.573,1.573,0,0,0-.2.046,2.043,2.043,0,0,0-.938.533,4.348,4.348,0,0,0-.776.9.486.486,0,0,0-.127.185.587.587,0,0,1-.1.185L1256.2,261.8h-3.8l1.807-12.791h3.8Z" transform="translate(-1115.734 -219.977)"/><circle class="c" cx="2.12" cy="2.12" r="2.12" transform="translate(26.485 47.603)"/><circle class="c" cx="2.12" cy="2.12" r="2.12" transform="translate(39.009 47.603)"/></g><path class="c" d="M159.918,345.251a2.091,2.091,0,0,1-.718-.151A2.091,2.091,0,0,0,159.918,345.251Z" transform="translate(-140.755 -305.095)"/><path class="c" d="M159.918,304.9a2.092,2.092,0,0,0-.718.151A1.853,1.853,0,0,1,159.918,304.9Z" transform="translate(-140.755 -269.552)"/><path class="a" d="M40.4,213.3a3,3,0,1,1-3-3A3,3,0,0,1,40.4,213.3Z" transform="translate(-30.414 -185.912)"/><g transform="translate(153.859 36.24)"><path class="a" d="M1329.969,347.6l-.324,1.541H1328l.324-1.541Z" transform="translate(-1328 -343.545)"/><path class="a" d="M1359.526,314.5l-1.564.174v-.035a.705.705,0,0,0-.243-.591.842.842,0,0,0-.533-.2,1.153,1.153,0,0,0-.73.278,1.788,1.788,0,0,0-.568.846,3.208,3.208,0,0,0-.22,1.1,1.031,1.031,0,0,0,.22.684.778.778,0,0,0,.649.278.97.97,0,0,0,.661-.243,2.117,2.117,0,0,0,.475-.765l1.587.243a2.76,2.76,0,0,1-2.815,2.016,2.434,2.434,0,0,1-1.819-.637,2.292,2.292,0,0,1-.625-1.692,3.974,3.974,0,0,1,.371-1.622,2.865,2.865,0,0,1,1.089-1.274,3.063,3.063,0,0,1,1.715-.463,2.437,2.437,0,0,1,1.645.521A1.982,1.982,0,0,1,1359.526,314.5Z" transform="translate(-1350.987 -312.6)"/><path class="a" d="M1408.925,312.6a2.316,2.316,0,0,1,1.842.672,2.419,2.419,0,0,1,.591,1.657,4.2,4.2,0,0,1-.1.869,3.333,3.333,0,0,1-.417,1.008,3.224,3.224,0,0,1-1.761,1.367,3.73,3.73,0,0,1-.973.127,2.666,2.666,0,0,1-1.842-.591,2.123,2.123,0,0,1-.66-1.668,3.955,3.955,0,0,1,.162-1.1,3.378,3.378,0,0,1,.487-1.008,3.278,3.278,0,0,1,.8-.8,2.785,2.785,0,0,1,.938-.417A3.591,3.591,0,0,1,1408.925,312.6Zm-.73,4.437a1.117,1.117,0,0,0,.834-.371,2.146,2.146,0,0,0,.5-.938,3.629,3.629,0,0,0,.162-.8,1.127,1.127,0,0,0-.266-.8.89.89,0,0,0-.683-.266,1.094,1.094,0,0,0-.8.336,2.28,2.28,0,0,0-.51.9,3.323,3.323,0,0,0-.174.962,1.017,1.017,0,0,0,.243.7A.907.907,0,0,0,1408.2,317.037Z" transform="translate(-1396.609 -312.6)"/><path class="a" d="M1464.934,313.4l-1.182,5.5h-1.413l1.02-4.206h-.023L1461.3,318.9h-1.251l-.232-4.206h-.011l-.788,4.206H1457.6l1.17-5.5h2.074l.208,3.487h.012l1.749-3.487Z" transform="translate(-1442.585 -313.307)"/></g></g></svg>